<svg width="20" height="20" viewBox="0 0 20 20" fill="none" xmlns="http://www.w3.org/2000/svg">
<rect width="20" height="20" rx="6" fill="#4DC8B4"/>
<circle cx="10" cy="11" r="5" fill="white"/>
<path d="M15.4249 10.5939C15.4249 10.1112 15.3617 9.64316 15.2426 9.19818C15.7094 8.75441 16 8.12827 16 7.43404C16 6.08936 14.9106 5 13.566 5C12.9714 5 12.428 5.21277 12.0049 5.56657C11.3909 5.32462 10.7222 5.19088 10.0219 5.19088C9.99514 5.19088 9.96839 5.19088 9.94164 5.19088C9.25957 5.20061 8.6079 5.33799 8.00973 5.57751C7.58419 5.21763 7.03465 5 6.43404 5C5.08936 5 4 6.08936 4 7.43404C4 8.14529 4.30517 8.78602 4.79149 9.231C4.67842 9.66626 4.61763 10.1234 4.61763 10.5951C4.61763 12.104 5.23647 13.4681 6.23465 14.4492L5.5307 15.1532C5.35562 15.3283 5.35562 15.6115 5.5307 15.7866C5.70578 15.9617 5.98906 15.9617 6.16413 15.7866L6.92644 15.0243C7.78237 15.6237 8.82067 15.9812 9.94043 15.997C9.96717 15.997 9.99392 15.997 10.0207 15.997C11.1587 15.997 12.214 15.6456 13.0845 15.045L13.8784 15.8389C14.0535 16.014 14.338 16.014 14.5119 15.8389C14.6869 15.6638 14.6869 15.3805 14.5119 15.2043L13.7812 14.4736C14.7939 13.4912 15.4237 12.1161 15.4237 10.5939H15.4249ZM9.94164 15.0049C7.54164 14.9623 5.60973 13.0036 5.60973 10.5939C5.60973 10.3058 5.63769 10.0249 5.69119 9.75137C5.99635 8.17447 7.14043 6.89666 8.64073 6.40304C9.05167 6.26809 9.48815 6.19027 9.94286 6.18298C9.9696 6.18298 9.99635 6.18298 10.0231 6.18298C10.4924 6.18298 10.9435 6.25714 11.3678 6.3921C12.8815 6.87599 14.0401 8.15501 14.3514 9.73921C14.4061 10.0164 14.4353 10.3021 14.4353 10.5951C14.4353 13.0316 12.4596 15.0073 10.0231 15.0073C9.99635 15.0073 9.9696 15.0073 9.94286 15.0073L9.94164 15.0049Z" fill="white"/>
<path d="M12.2516 10.415H10.3039V7.78281C10.3039 7.56154 10.1252 7.38281 9.90391 7.38281C9.68263 7.38281 9.50391 7.56154 9.50391 7.78281V10.7798C9.50391 10.7798 9.50391 10.7919 9.50391 10.798C9.50391 10.8041 9.50391 10.8102 9.50391 10.8162C9.50391 11.0363 9.68263 11.2162 9.90391 11.2162H12.2516C12.4729 11.2162 12.6516 11.0375 12.6516 10.8162C12.6516 10.595 12.4729 10.4162 12.2516 10.4162V10.415Z" fill="#4DC8B4"/>
</svg>
