<svg width="20" height="20" viewBox="0 0 20 20" fill="none" xmlns="http://www.w3.org/2000/svg">
<rect width="20" height="20" rx="6" fill="#4DC8B4"/>
<g clip-path="url(#clip0_621_10595)">
<path d="M7.04414 17.0691C6.98848 17.306 7.0545 17.3358 7.193 17.1351L9.55921 13.692L8.01237 13.0046L7.04414 17.0691Z" fill="white"/>
<path d="M15.7835 5.7909L12.6756 4.41104L9.56899 3.03119C9.38648 2.94964 9.17031 3.03378 9.08876 3.21629L8.89201 3.66028C8.81046 3.84279 8.8946 4.05896 9.07711 4.14051L9.92108 4.5146L7.90307 9.05802C6.62159 9.22629 5.51098 9.94858 5.00098 11.0967L8.15937 12.4999L9.7062 13.1872L12.8646 14.5904C13.3746 13.4409 13.1662 12.1336 12.431 11.0696L14.449 6.52483L15.2929 6.89892C15.4754 6.98047 15.6929 6.89633 15.7732 6.71382L15.9699 6.26983C16.0515 6.08732 15.9673 5.87115 15.7848 5.7896L15.7835 5.7909Z" fill="white"/>
</g>
<defs>
<clipPath id="clip0_621_10595">
<rect width="11" height="14.2684" fill="white" transform="translate(5 3)"/>
</clipPath>
</defs>
</svg>
