<svg width="16" height="16" viewBox="0 0 16 16" fill="none" xmlns="http://www.w3.org/2000/svg">
<g clip-path="url(#clip0_63_428)">
<path d="M13.4444 1H2.55556C1.69645 1 1 1.69645 1 2.55556V13.4444C1 14.3036 1.69645 15 2.55556 15H13.4444C14.3036 15 15 14.3036 15 13.4444V2.55556C15 1.69645 14.3036 1 13.4444 1Z" stroke="#AEAFB1" stroke-width="1.2" stroke-linecap="round" stroke-linejoin="round"/>
<path d="M5.27824 6.44442C5.92257 6.44442 6.44491 5.92208 6.44491 5.27775C6.44491 4.63342 5.92257 4.11108 5.27824 4.11108C4.63391 4.11108 4.11157 4.63342 4.11157 5.27775C4.11157 5.92208 4.63391 6.44442 5.27824 6.44442Z" stroke="#AEAFB1" stroke-width="1.2" stroke-linecap="round" stroke-linejoin="round"/>
<path d="M14.9996 10.3333L11.1107 6.44443L2.55518 15" stroke="#AEAFB1" stroke-width="1.2" stroke-linecap="round" stroke-linejoin="round"/>
</g>
<defs>
<clipPath id="clip0_63_428">
<rect width="16" height="16" fill="white"/>
</clipPath>
</defs>
</svg>
