<svg width="16" height="16" viewBox="0 0 16 16" fill="none" xmlns="http://www.w3.org/2000/svg">
<path d="M13.2525 14.0117H12.31C11.7662 14.0117 11.3675 13.5767 11.3675 13.0692V12.163C9.7725 12.6342 7.92375 12.6705 6.32875 12.2355V13.033C6.32875 13.5767 5.89375 13.9755 5.38625 13.9755H4.4075C3.86375 13.9755 3.465 13.5405 3.465 13.033V10.6767C3.2475 10.4592 3.03 10.2417 2.84875 10.0242H1.9425C1.435 10.0242 1 9.58923 1 9.08173V7.05173C1 6.58048 1.435 6.14548 1.9425 6.14548H2.305C2.5225 5.67423 2.84875 5.20298 3.2475 4.80423C3.35625 4.07923 3.06625 3.42673 2.3775 2.73798C2.26875 2.66548 2.2325 2.52048 2.26875 2.41173C2.305 2.30298 2.41375 2.19423 2.5225 2.15798C4.00875 1.75923 5.205 2.12173 6.075 3.17298C6.90875 2.91923 7.815 2.77423 8.72125 2.77423C12.455 2.77423 15.5 4.94923 15.5 7.63173C15.5 8.64673 15.0287 9.66173 14.2312 10.4955V13.033C14.2312 13.5767 13.7962 14.0117 13.2525 14.0117ZM11.73 11.2567C11.8025 11.2567 11.875 11.293 11.9475 11.3292C12.0562 11.4017 12.0925 11.5105 12.0925 11.6192V13.033C12.0925 13.178 12.2013 13.2505 12.31 13.2505H13.2525C13.3975 13.2505 13.47 13.1417 13.47 13.033V10.3505C13.47 10.2417 13.5063 10.1692 13.5788 10.0967C14.34 9.37173 14.7388 8.53798 14.7388 7.66798C14.7388 5.38423 12.02 3.53548 8.685 3.53548C7.7425 3.53548 6.83625 3.68048 6.0025 3.97048C5.8575 4.00673 5.67625 3.97048 5.60375 3.82548C5.02375 2.99173 4.2625 2.66548 3.28375 2.77423C3.86375 3.49923 4.08125 4.26048 3.93625 5.05798C3.93625 5.13048 3.9 5.20298 3.8275 5.23923C3.3925 5.63798 3.06625 6.10923 2.885 6.61673C2.8125 6.79798 2.6675 6.87048 2.5225 6.87048H1.9425C1.83375 6.87048 1.725 6.97923 1.725 7.08798V9.11798C1.725 9.22673 1.83375 9.33548 1.9425 9.33548H3.03C3.13875 9.33548 3.2475 9.40798 3.32 9.48048C3.50125 9.77048 3.755 10.0242 4.045 10.2417C4.1175 10.3142 4.19 10.423 4.19 10.5317V13.033C4.19 13.178 4.29875 13.2505 4.4075 13.2505H5.35C5.495 13.2505 5.5675 13.1417 5.5675 13.033V11.6917C5.5675 11.583 5.64 11.4742 5.7125 11.4017C5.82125 11.3292 5.93 11.3292 6.03875 11.3655C6.8725 11.6555 7.77875 11.8005 8.72125 11.8005C9.73625 11.8005 10.715 11.6192 11.585 11.293C11.6575 11.2567 11.6937 11.2567 11.73 11.2567Z" fill="#AEAFB1" stroke="#AEAFB1" stroke-width="0.5"/>
</svg>
