<svg width="16" height="16" viewBox="0 0 16 16" fill="none" xmlns="http://www.w3.org/2000/svg">
<path d="M14.2233 3.5543V6.88799H10.8896" stroke="#AEAFB1" stroke-width="1.2" stroke-linecap="round" stroke-linejoin="round"/>
<path d="M2 12.4441V9.11044H5.33368" stroke="#AEAFB1" stroke-width="1.2" stroke-linecap="round" stroke-linejoin="round"/>
<path d="M3.39459 6.33237C3.67638 5.53605 4.1553 4.8241 4.78666 4.26294C5.41803 3.70178 6.18125 3.3097 7.00513 3.12329C7.82901 2.93687 8.68668 2.9622 9.49812 3.19691C10.3096 3.43162 11.0483 3.86806 11.6455 4.46551L14.2235 6.88798M2 9.11044L4.57805 11.5329C5.17519 12.1304 5.91395 12.5668 6.72539 12.8015C7.53683 13.0362 8.3945 13.0615 9.21838 12.8751C10.0423 12.6887 10.8055 12.2966 11.4368 11.7355C12.0682 11.1743 12.5471 10.4624 12.8289 9.66605" stroke="#AEAFB1" stroke-width="1.2" stroke-linecap="round" stroke-linejoin="round"/>
</svg>
