<svg width="12" height="12" viewBox="0 0 12 12" fill="none" xmlns="http://www.w3.org/2000/svg">
<path d="M9.50916 4.81447L7.18559 2.49016C6.87083 2.17627 6.44448 2 6 2C5.55552 2 5.12917 2.17627 4.81441 2.49016L2.49084 4.81447C2.17656 5.12891 2 5.55532 2 5.99993C2 6.44454 2.17656 6.87096 2.49084 7.18539L4.81441 9.50971C5.12912 9.82368 5.55549 10 6 10C6.44451 10 6.87088 9.82368 7.18559 9.50971L9.50916 7.18539C9.82344 6.87096 10 6.44454 10 5.99993C10 5.55532 9.82344 5.12891 9.50916 4.81447Z" fill="#838486"/>
</svg>
