<svg width="117" height="28" viewBox="0 0 117 28" fill="none" xmlns="http://www.w3.org/2000/svg">
<path d="M42.7188 23.2793C38.5039 23.2793 35.9141 20.5371 35.9141 16.1699C35.9141 11.9043 38.5293 9.03516 42.5664 9.03516C46.1973 9.03516 49.041 11.3203 49.041 16.0176V17.084H39.6211C39.6211 19.166 40.8652 20.4609 42.7949 20.4609C44.0645 20.4609 44.9785 19.9023 45.3594 19.0645H48.9395C48.4062 21.6035 46.1211 23.2793 42.7188 23.2793ZM39.6211 14.7227H45.4863C45.4863 13.0469 44.3184 11.8535 42.6426 11.8535C40.916 11.8535 39.6846 13.1357 39.6211 14.7227ZM51.3008 23V20.7402L58.1055 12.3105V12.209H51.5293V9.21289H62.625V11.6758L56.252 19.9023V20.0039H62.8535V23H51.3008ZM65.748 23V4.61719H77.8594V7.76562H69.5566V12.2344H77.0723V15.3828H69.5566V23H65.748ZM97.207 13.8086C97.207 19.8008 93.4746 23.2539 88.625 23.2539C83.7246 23.2539 80.0176 19.7754 80.0176 13.8086C80.0176 7.81641 83.7246 4.36328 88.625 4.36328C93.4746 4.36328 97.207 7.81641 97.207 13.8086ZM93.3223 13.8086C93.3223 9.87305 91.4688 7.74023 88.625 7.74023C85.7812 7.74023 83.9023 9.87305 83.9023 13.8086C83.9023 17.7441 85.7812 19.877 88.625 19.877C91.4688 19.877 93.3223 17.7441 93.3223 13.8086ZM106.424 23H99.9492V4.61719H106.5C112.035 4.61719 115.412 8.07031 115.412 13.7832C115.412 19.5469 112.035 23 106.424 23ZM103.758 19.7246H106.271C109.775 19.7246 111.604 17.8965 111.604 13.7832C111.604 9.69531 109.775 7.89258 106.297 7.89258H103.758V19.7246Z" fill="#242424"/>
<circle opacity="0.6" cx="10.6061" cy="10.6061" r="10.6061" fill="#1DB199"/>
<circle cx="18.242" cy="18.2424" r="9.00758" fill="#3CBEA9" fill-opacity="0.5" stroke="white" stroke-width="1.5"/>
</svg>
